PathFileType	4	(X/Y/Z)	RBDS011\RBDS011runT25.trc
DataRate	CameraRate	NumFrames	NumMarkers	Units	OrigDataRate	OrigDataStartFrame	OrigNumFrames
150.000000	150.000000	4	33	mm	150.000000	1687	4500
Frame#	Time	L.ASIS			L.Heel.Bottom			L.Heel.Lateral			L.Heel.Top			L.Iliac.Crest			L.MT1			L.MT5			L.PSIS			L.Shank.Bottom.Lateral			L.Shank.Bottom.Medial			L.Shank.Top.Lateral			L.Shank.Top.Medial			L.Thigh.Bottom.Lateral			L.Thigh.Bottom.Medial			L.Thigh.Top.Lateral			L.Thigh.Top.Medial			R.ASIS			R.ASY			R.Heel.Bottom			R.Heel.Lateral			R.Heel.Top			R.Iliac.Crest			R.MT1			R.MT5			R.PSIS			R.Shank.Bottom.Lateral			R.Shank.Bottom.Medial			R.Shank.Top.Lateral			R.Shank.Top.Medial			R.Thigh.Bottom.Lateral			R.Thigh.Bottom.Medial			R.Thigh.Top.Lateral			R.Thigh.Top.Medial			
		X1	Y1	Z1	X2	Y2	Z2	X3	Y3	Z3	X4	Y4	Z4	X5	Y5	Z5	X6	Y6	Z6	X7	Y7	Z7	X8	Y8	Z8	X9	Y9	Z9	X10	Y10	Z10	X11	Y11	Z11	X12	Y12	Z12	X13	Y13	Z13	X14	Y14	Z14	X15	Y15	Z15	X16	Y16	Z16	X17	Y17	Z17	X18	Y18	Z18	X19	Y19	Z19	X20	Y20	Z20	X21	Y21	Z21	X22	Y22	Z22	X23	Y23	Z23	X24	Y24	Z24	X25	Y25	Z25	X26	Y26	Z26	X27	Y27	Z27	X28	Y28	Z28	X29	Y29	Z29	X30	Y30	Z30	X31	Y31	Z31	X32	Y32	Z32	X33	Y33	Z33	

1688	11.24666666666667	2253.439778305017	948.8371791085666	926.0207055311528	2012.426332179118	38.03037189364514	1015.291460944152	2039.45644899383	51.62876194650453	977.4120786830023	2026.71624458009	85.70834501525451	1018.623634284655	2182.573043729747	1004.037800666424	893.7201827793604	2237.869919216448	40.62888173685278	1066.222149175771	2212.072881038765	39.61268252607452	949.498799552437	2087.53236185021	976.6128529496099	1012.729632753437	2132.111219788934	164.5258064788504	958.8681435924284	2096.054139802149	189.9278419678493	991.8705339726093	2162.838245473733	236.0701771593475	938.6093508425618	2129.166189114771	261.330775564995	972.5197823655334	2269.163325307759	572.5439169161274	894.5145697025795	2208.22716855627	551.421530318117	928.5216816239699	2221.867254758484	671.5552642540887	879.0182116753293	2166.074557170038	652.7642782013588	913.9079795798744	2260.389589025397	927.4210868152566	1175.638578542817	1929.382020247419	258.6287710862132	1123.998978986248	1818.172088515732	414.5284164777798	1112.877857437455	1840.742497361416	394.7274415594603	1155.371221402755	1868.845668193422	417.9308398718643	1116.052198672739	2208.59821158415	978.454147279602	1213.76881072227	1894.968228713278	204.4441042208501	1070.195378748959	1872.208668208574	223.5400487085821	1185.141324173074	2091.171148829113	970.6097051926523	1110.511446878078	1962.060378944311	390.6546344034977	1172.563927766531	1963.520812072407	425.1478162437725	1134.574027998947	2041.6867469511	411.4807132231109	1192.569897798453	2038.583651220986	447.8884069287653	1153.798507091718	2268.850309539587	550.1020217869401	1229.041837665969	2216.556616905425	533.0847152409332	1180.034284460491	2226.368502475023	650.98063651158	1235.959533685513	2175.604760126345	635.3355860665953	1192.273455557144	
1689	11.25333333333333	2251.600801215336	949.3185435518311	925.927041532771	1995.493251733795	38.64583492460578	1015.198389632073	2022.612350631543	52.15861625721915	977.3582360621014	2009.873657097239	86.27025091285952	1018.547229378979	2181.042928277408	1005.53641902465	893.3631403196325	2220.860015507741	40.34118885759859	1066.186467847804	2195.057591236021	39.42483749045321	949.4841305763218	2085.771522970933	978.1675863633756	1012.261744669307	2116.185905955097	164.7234197550847	958.77280219235	2080.487006267624	190.5585502929176	991.8602429776059	2147.659186204126	235.8619115136605	938.4030178748253	2114.300531436325	261.5624168517371	972.306098587454	2259.639595245274	571.6208386137866	893.9174024327057	2197.897223505899	551.5771154273669	927.2530907380049	2214.653688491077	671.7286818016997	878.664082174517	2158.202890455325	654.023265351105	913.2124825331141	2258.352569645805	929.3296211866499	1175.566045176406	1946.228308731937	250.8617217603627	1124.095771112603	1828.948087097381	402.2571721977629	1113.23426543061	1852.251848932284	383.2533336778113	1155.68266529027	1879.351683757934	407.6924385947365	1116.593569677576	2205.41762351256	980.3812861213619	1213.70971396744	1914.078659682914	195.5007961875928	1070.152379762269	1890.507710615208	213.4174710373955	1185.066241604118	2089.200676292813	972.2640218558952	1109.951389732347	1973.920092217615	384.0492157594276	1172.71537666446	1974.098854328582	418.4512926194735	1134.614882508766	2052.80046082524	407.717416210623	1192.560431459755	2048.313668904002	443.9034723177953	1153.710631262944	2276.873535884161	554.5571914893059	1229.721945439614	2224.751157450744	535.5909981079277	1181.208504831473	2231.315974694719	654.1523291550111	1236.33489459254	2180.581059170459	636.5408283567699	1193.302130848854	
1690	11.26	2249.793780771485	950.3507676649804	925.7758472646776	1978.570525129881	39.52045898576961	1015.031933600192	2005.797804817791	52.89552273014972	977.2354135158815	1993.049033713775	87.08482225340741	1018.360888205129	2179.744288827215	1007.4832036636	893.1562480919006	2203.830770648547	40.14787274357086	1066.165092346797	2178.036449525452	39.30568780750484	949.5058197127378	2084.117037054461	980.2267060659639	1011.838273268846	2100.156699844998	165.260664276576	958.6559008262359	2064.724036167397	191.454292498811	991.8135574636295	2132.219438055623	236.0563760958442	938.1834992806739	2099.125946635471	262.1252126606822	972.0913171960082	2249.468622364473	571.2087105827276	893.5257156757673	2187.102520670182	552.4546126140357	926.5052674649709	2206.923777022968	672.3779983893023	878.4386034199425	2149.992338577517	655.9420095842634	912.913480439064	2256.526705138121	931.8342235741763	1175.386952988207	1963.614048612962	242.6007354894663	1124.349073217548	1839.9113388303	388.7321542473093	1113.436901100245	1863.960285101067	370.7378399749471	1155.880788986457	1889.921179764659	396.430359021114	1116.988625656647	2202.75837724876	982.9174841257226	1213.615071957447	1934.029695462199	185.9650679280358	1070.313894483173	1909.576971418381	202.7381975574625	1185.145316794035	2087.383617034423	974.5475655538983	1109.49501491207	1985.719693226372	376.9296529225235	1172.791363990149	1984.492831299296	411.132121736992	1134.526584885938	2063.639683652126	403.7780372496722	1192.44453364782	2057.627676729866	439.6116603741733	1153.472133352556	2284.403533739456	559.8384455498252	1230.286540159164	2232.528703953225	539.0683038801615	1182.209802375942	2235.952505389999	658.1011715156372	1236.732595945977	2185.285734377862	638.6557522580321	1194.317660145217	
1691	11.26666666666667	2248.031667245137	951.9411342786376	925.5413604741535	1961.681709449848	40.72236737181018	1014.794407059301	1989.033931150567	53.89277351481091	977.0376018711821	1976.279348726401	88.21785003670736	1018.052912711875	2178.656023036005	1009.834771915144	893.111434022942	2186.789120291101	40.06619847950407	1066.144000060987	2161.014380229358	39.2546655275527	949.5541821403679	2082.593337261484	982.7719955679048	1011.478615690265	2084.059808575911	166.1856910834019	958.5074185109303	2048.797976044923	192.6602284667496	991.7194712794986	2116.558938288355	236.703793202653	937.9476891644151	2083.678931045458	263.0667309880013	971.8716141568925	2238.679026981004	571.3380286954409	893.3851550451051	2175.881577592597	554.0976158198121	926.337870072395	2198.718017934468	673.5275186011636	878.3773825721313	2141.495145767634	658.5575531928586	913.0576133938268	2254.942930753833	934.8893407917859	1175.086536490273	1981.557338279583	233.9510739911107	1124.770580233942	1851.193365441171	374.0328066946068	1113.455227239509	1875.973486561512	357.2642571057269	1155.937805059463	1900.670489270285	384.1912918614097	1117.191289024794	2200.669880430162	986.0308864125835	1213.489131515105	1954.841149969758	175.9716325327613	1070.712246631258	1929.429452930379	191.6596745622963	1185.403762367428	2085.744831855363	977.4426275751048	1109.154415856953	1997.501687379667	369.3246512925705	1172.77190974587	1994.776656773026	403.2018898466688	1134.288405361218	2074.211588192634	399.6495648735872	1192.206049098724	2066.569214065442	434.9818173474869	1153.062567823032	2291.395123817282	565.8449242417929	1230.729617600407	2239.810284476861	543.4412768383078	1183.043661835927	2240.273500108351	662.7530881238467	1237.1669261599	2189.6919030647	641.6366116609476	1195.33614742756	
